<svg xmlns="http://www.w3.org/2000/svg" xmlns:xlink="http://www.w3.org/1999/xlink" viewBox="0 0 182.21 140.47"><defs><style>.cls-1{fill:#bbd2d8;}.cls-2{fill:#74a7a6;}.cls-3{fill:url(#linear-gradient);}.cls-4{fill:url(#linear-gradient-2);}.cls-5{fill:url(#linear-gradient-3);}.cls-6{fill:url(#linear-gradient-4);}.cls-7{fill:url(#linear-gradient-5);}.cls-8{fill:url(#linear-gradient-6);}.cls-9{fill:url(#linear-gradient-7);}.cls-10{fill:url(#linear-gradient-8);}.cls-11{fill:url(#linear-gradient-9);}.cls-12{fill:url(#linear-gradient-10);}.cls-13,.cls-14,.cls-18,.cls-19,.cls-20{fill:none;}.cls-13,.cls-14,.cls-16,.cls-18,.cls-19,.cls-20{stroke:#282334;}.cls-13,.cls-14,.cls-15,.cls-16,.cls-17,.cls-18,.cls-19,.cls-20{stroke-miterlimit:10;}.cls-13{stroke-width:2.29px;}.cls-14{stroke-width:4.57px;}.cls-15{fill:#5e7e6e;}.cls-15,.cls-17{stroke:#292435;}.cls-15,.cls-16,.cls-17{stroke-width:3px;}.cls-16{fill:#f5af34;}.cls-17{fill:#ee2f37;}.cls-18{stroke-width:3.81px;}.cls-19,.cls-20{stroke-linecap:round;}.cls-19{stroke-width:5.7px;}.cls-20{stroke-width:5px;}</style><linearGradient id="linear-gradient" x1="14092.02" y1="460.87" x2="14176.92" y2="617.73" gradientTransform="translate(-387.55 14216.28) rotate(-90)" gradientUnits="userSpaceOnUse"><stop offset="0" stop-color="#292435"/><stop offset="1" stop-color="#292435"/></linearGradient><linearGradient id="linear-gradient-2" x1="13272.02" y1="17632.41" x2="13370.31" y2="17814" gradientTransform="translate(13369.65 17775.8) rotate(180)" xlink:href="#linear-gradient"/><linearGradient id="linear-gradient-3" x1="13260.81" y1="17638.48" x2="13359.1" y2="17820.07" gradientTransform="translate(13369.65 17775.8) rotate(180)" xlink:href="#linear-gradient"/><linearGradient id="linear-gradient-4" x1="13250.15" y1="17644.25" x2="13348.44" y2="17825.84" gradientTransform="translate(13369.65 17775.8) rotate(180)" xlink:href="#linear-gradient"/><linearGradient id="linear-gradient-5" x1="13299.79" y1="17617.39" x2="13398.07" y2="17798.97" gradientTransform="translate(13369.65 17775.8) rotate(180)" xlink:href="#linear-gradient"/><linearGradient id="linear-gradient-6" x1="14104.65" y1="347.13" x2="14189.69" y2="504.25" xlink:href="#linear-gradient"/><linearGradient id="linear-gradient-7" x1="13283.46" y1="17626.22" x2="13381.75" y2="17807.81" gradientTransform="translate(13369.65 17775.8) rotate(180)" xlink:href="#linear-gradient"/><linearGradient id="linear-gradient-8" x1="13294.67" y1="17620.15" x2="13392.96" y2="17801.74" gradientTransform="translate(13369.65 17775.8) rotate(180)" xlink:href="#linear-gradient"/><linearGradient id="linear-gradient-9" x1="13305.33" y1="17614.39" x2="13403.62" y2="17795.97" gradientTransform="translate(13369.65 17775.8) rotate(180)" xlink:href="#linear-gradient"/><linearGradient id="linear-gradient-10" x1="13255.7" y1="17641.25" x2="13353.98" y2="17822.84" gradientTransform="translate(13369.65 17775.8) rotate(180)" xlink:href="#linear-gradient"/></defs><g id="レイヤー_2" data-name="レイヤー 2"><g id="レイヤー_1-2" data-name="レイヤー 1"><rect class="cls-1" x="47.25" y="9.91" width="123.9" height="26.69"/><polyline class="cls-1" points="58.22 73.97 43.37 98.32 13.98 98.32 0.91 73.97 13.98 49.62 45.75 49.62"/><polyline class="cls-1" points="125.12 111.04 109.98 137.47 80.58 137.47 67.52 113.12 80.58 88.77 112.36 88.47"/><polygon class="cls-2" points="111.63 112.17 103 126.6 87.19 126.9 78.41 112.42 86.98 97.91 102.72 97.61 111.63 112.17"/><polygon class="cls-2" points="46.68 73.75 37.76 88.18 21.95 88.48 13.17 74 21.74 59.5 37.77 59.2 46.68 73.75"/><path class="cls-3" d="M109,84.69a2,2,0,0,1,1.72,1l14.45,25.7a2,2,0,0,1,0,1.92l-14.08,25.9a2,2,0,0,1-1.72,1l-28.53.21a2,2,0,0,1-1.74-1L64.64,113.77a2,2,0,0,1,0-1.91L78.7,86a2,2,0,0,1,1.72-1L109,84.69Zm12.19,27.71L107.82,88.68l-26.2.19-13,23.92L82,136.51l26.2-.19Z"/><path class="cls-4" d="M95.42,110.09a2,2,0,0,1,0,4l-29.35.24h0a2,2,0,0,1,0-4l29.35-.24Z"/><path class="cls-5" d="M95.6,110.68a2,2,0,0,1,1.74,1l13.75,25.82a2,2,0,0,1-3.49,1.85L93.86,113.58a2,2,0,0,1,.81-2.67A1.94,1.94,0,0,1,95.6,110.68Z"/><path class="cls-6" d="M109,84.9a2,2,0,0,1,.91.23,2,2,0,0,1,.84,2.66L97.35,113.56a2,2,0,1,1-3.5-1.82L107.21,86A2,2,0,0,1,109,84.9Z"/><path class="cls-7" d="M24,107.4l8.69,15.43,40.91.57-.05,3.95-42-.58a2,2,0,0,1-1.7-1l-9.24-16.42Z"/><path class="cls-8" d="M44.91,44.87a2.3,2.3,0,0,1,2,1.17L61.37,71.73a2.3,2.3,0,0,1,0,2.23L47.31,99.86a2.33,2.33,0,0,1-2,1.21l-28.54.21h0a2.33,2.33,0,0,1-2-1.18L.3,74.41a2.3,2.3,0,0,1,0-2.23l14.08-25.9a2.31,2.31,0,0,1,2-1.21l28.54-.2Zm11.82,28L43.57,49.48l-25.81.19L4.94,73.26,18.1,96.65l25.81-.19Z"/><path class="cls-9" d="M59.66,71.37a2,2,0,0,1,0,3.95l-29.35.22h0a2,2,0,0,1,0-4l29.35-.22Z"/><path class="cls-10" d="M16.38,45.21a2,2,0,0,1,1.74,1L31.87,72.08a2,2,0,0,1-3.49,1.86L14.63,48.12a2,2,0,0,1,.82-2.68A2.06,2.06,0,0,1,16.38,45.21Z"/><path class="cls-11" d="M30.13,71a2,2,0,0,1,.91.22,2,2,0,0,1,.84,2.67L18.51,99.69A2,2,0,1,1,15,97.87L28.37,72.1A2,2,0,0,1,30.13,71Z"/><path class="cls-12" d="M52.16,58.31l42.05.59a2,2,0,0,1,1.7,1l9.24,16.42-3.45,1.94L93,62.83l-40.91-.57Z"/><polyline class="cls-13" points="95.02 85.75 86.41 71.5 59.68 71.5"/><polyline class="cls-13" points="31.33 98.52 39.94 112.77 66.66 112.77"/><path class="cls-14" d="M40.39,45.21V13.72A11.46,11.46,0,0,1,51.82,2.29H168.48a11.47,11.47,0,0,1,11.44,11.43v86.93a11.47,11.47,0,0,1-11.44,11.43H130.36"/><circle class="cls-15" cx="129.23" cy="16.33" r="4.99"/><circle class="cls-16" cx="146.89" cy="16.33" r="4.99"/><circle class="cls-17" cx="164.93" cy="16.33" r="4.99"/><line class="cls-18" x1="50.3" y1="29.74" x2="171.15" y2="29.74"/><polyline class="cls-19" points="144.89 63.56 155.81 52.63 166.74 63.56"/><polyline class="cls-20" points="121.77 87.68 155.93 87.68 155.93 56.99"/></g></g></svg>