<svg xmlns="http://www.w3.org/2000/svg" viewBox="0 0 143.15 147.22"><defs><style>.cls-1{fill:#bbd2d8;}.cls-2{fill:#5e7e6e;}.cls-3,.cls-5,.cls-6,.cls-7,.cls-8,.cls-9{fill:none;}.cls-10,.cls-11,.cls-3,.cls-5,.cls-6,.cls-7,.cls-8,.cls-9{stroke:#282334;stroke-miterlimit:10;}.cls-3{stroke-width:3.82px;}.cls-4{fill:#282334;}.cls-5{stroke-width:4.22px;}.cls-6{stroke-width:4.57px;}.cls-7{stroke-width:2.81px;}.cls-8{stroke-linecap:round;stroke-width:3.41px;}.cls-9{stroke-width:3.06px;}.cls-10{fill:#ee2f37;stroke-width:3.07px;}.cls-11{fill:#f5af34;stroke-width:2.49px;}</style></defs><g id="レイヤー_2" data-name="レイヤー 2"><g id="レイヤー_1-2" data-name="レイヤー 1"><path class="cls-1" d="M7.39,55V96.33H64.07V55Z"/><polygon class="cls-2" points="61.81 90.28 61.81 77.01 46.05 63.7 39 71.19 61.81 90.28"/><polyline class="cls-2" points="61.45 91.54 30.24 63.7 9.44 81.59 9.44 91.7"/><path class="cls-1" d="M88,13.4V61h44.82V13.4Z"/><path class="cls-1" d="M70.12,99.17v45.1h56.59V99.17Z"/><polyline class="cls-3" points="92.23 16.37 81.97 16.37 81.97 66.05 127.56 66.05 127.56 58.08"/><path class="cls-3" d="M95,1.91v53h46.24v-53Z"/><rect class="cls-4" x="102.33" y="19.55" width="31.59" height="2.97"/><rect class="cls-4" x="102.33" y="25.85" width="31.59" height="2.97"/><rect class="cls-4" x="102.33" y="32.9" width="31.59" height="2.97"/><rect class="cls-5" x="2.11" y="42.77" width="67.53" height="67.17"/><polyline class="cls-6" points="70.34 79.52 126.43 79.52 126.43 144.94 53.98 144.94 53.98 110.65"/><rect class="cls-7" x="9.85" y="49.8" width="52.05" height="42.55"/><polyline class="cls-8" points="9.79 81.59 30.6 63.7 61.81 91.54"/><polyline class="cls-9" points="39 71.19 46.05 63.7 61.81 77.01"/><polygon class="cls-10" points="81.94 112.44 81.94 99.19 93.37 105.82 104.82 112.44 93.38 119.06 81.94 125.69 81.94 112.44"/><rect class="cls-4" x="75.61" y="84.97" width="6.33" height="5.28"/><rect class="cls-4" x="87.92" y="84.97" width="5.98" height="5.28"/><rect class="cls-4" x="99.53" y="84.97" width="5.98" height="5.28"/><rect class="cls-4" x="111.13" y="84.97" width="6.33" height="5.28"/><rect class="cls-4" x="63.66" y="134.91" width="6.33" height="5.28"/><rect class="cls-4" x="75.61" y="134.91" width="6.33" height="5.28"/><rect class="cls-4" x="87.92" y="134.91" width="5.98" height="5.28"/><rect class="cls-4" x="99.53" y="134.91" width="5.98" height="5.28"/><rect class="cls-4" x="111.13" y="134.91" width="6.33" height="5.28"/><rect class="cls-11" x="130.27" y="2.9" width="10.86" height="12.1"/></g></g></svg>