<svg xmlns="http://www.w3.org/2000/svg" viewBox="0 0 188.15 145.77"><defs><style>.cls-1,.cls-8{fill:#74a7a6;}.cls-2,.cls-4,.cls-6{fill:none;}.cls-2,.cls-3,.cls-4,.cls-6,.cls-7,.cls-8{stroke:#282334;stroke-miterlimit:10;}.cls-2{stroke-width:4.65px;}.cls-3{fill:#fff;}.cls-3,.cls-6{stroke-width:3.75px;}.cls-4{stroke-linecap:round;stroke-width:3.37px;}.cls-5{fill:#bbd2d8;}.cls-7{fill:#f5af34;stroke-width:2.62px;}.cls-8{stroke-width:3px;}.cls-9{fill:#282334;}</style></defs><g id="レイヤー_2" data-name="レイヤー 2"><g id="レイヤー_1-2" data-name="レイヤー 1"><path class="cls-1" d="M8.16,138C11,124.24,22.49,112,36.23,112c12.36,0,22.89,9,26.91,21l2.15-.19c1.12-3.57,2.24-6.22,3.36-9.79l2.63-8.36c.94-3,1.69-6.22,3.56-8.83s6.11-5,9.11-2.65c3.38,2.6.22,7.22-2.63,8.81l-7.54,32.12-13.67,0a5.1,5.1,0,0,1-1.11.12l-45.62-.05A5.25,5.25,0,0,1,8.16,138Z"/><path class="cls-2" d="M2.33,143.87c-.37-24.35,16.76-40.08,33-40.06,11.33,0,21.36,6.87,27.53,16.88l5.13-12a5.12,5.12,0,0,1-1.1-1.71c-1.52-3.92,1.95-9,7.76-11.41S86.44,94.43,88,98.36s-1.95,9-7.75,11.41A18.82,18.82,0,0,1,77.38,111l-4.57,33.32"/><path class="cls-3" d="M33.33,104.3A19.22,19.22,0,1,0,15.14,86.09,19.22,19.22,0,0,0,33.33,104.3Z"/><path class="cls-1" d="M33.63,102.29A14,14,0,1,0,20.36,89,14,14,0,0,0,33.63,102.29Z"/><line class="cls-4" x1="15.12" y1="144.09" x2="15.12" y2="127.39"/><path class="cls-3" d="M149,105.5a20.36,20.36,0,1,0-19.26-19.29A20.36,20.36,0,0,0,149,105.5Z"/><path class="cls-3" d="M115,144.09c2.28-17.21,18.91-36.23,36.16-36.22s32.59,17.15,35.16,35.37"/><path class="cls-1" d="M149.16,104.16a15.52,15.52,0,1,0-14.91-14.7A15.65,15.65,0,0,0,149.16,104.16Z"/><path class="cls-1" d="M179.08,138.61c-2.86-13.23-14.57-25.07-28.6-25.08a24.82,24.82,0,0,0-6.52.86v30.2l29.78,0A5.15,5.15,0,0,0,179.08,138.61Z"/><path class="cls-5" d="M134.76,12.48H74c-5,0-9.16,3.77-9.16,8.37V42.34c0,4.6,4.12,8.37,9.16,8.37h7.17l-1.1,16.86,14.4-16.86h40.27c5,0,9.15-3.77,9.15-8.37V20.85C143.91,16.25,139.79,12.48,134.76,12.48Z"/><path class="cls-6" d="M130.82,1.87H63.36A10.18,10.18,0,0,0,53.19,12V38A10.18,10.18,0,0,0,63.36,48.15h8L70.1,68.57l16-20.42h44.73A10.18,10.18,0,0,0,141,38V12A10.19,10.19,0,0,0,130.82,1.87Z"/><path class="cls-5" d="M144.67,145V119.82c0-.79-.42-1.42-.94-1.42H111.18c-.52,0-.94.63-.94,1.42V145Z"/><path class="cls-6" d="M144.78,143.47v-28a1.22,1.22,0,0,0-1.15-1.29H105a1.22,1.22,0,0,0-1.15,1.29V145"/><path class="cls-7" d="M135.15,110.93h-6.73a4,4,0,0,0,0-.49,4.58,4.58,0,0,0-9.16,0,4,4,0,0,0,0,.49h-5.88a2.58,2.58,0,0,0-2.63,2.53v3.75a2.58,2.58,0,0,0,2.63,2.53h21.71a2.59,2.59,0,0,0,2.63-2.53v-3.76A2.58,2.58,0,0,0,135.15,110.93Z"/><path class="cls-8" d="M130.47,144.81a12.18,12.18,0,1,1,24.35,0"/><path class="cls-9" d="M107.05,19.11H67a2.06,2.06,0,0,1-2.06-2.06h0A2.06,2.06,0,0,1,67,15h40.09a2.06,2.06,0,0,1,2.06,2.06h0A2.06,2.06,0,0,1,107.05,19.11Z"/><path class="cls-9" d="M127.13,19.41H117.7a2.21,2.21,0,0,1-2.22-2.21h0A2.21,2.21,0,0,1,117.7,15h9.43a2.21,2.21,0,0,1,2.21,2.21h0A2.21,2.21,0,0,1,127.13,19.41Z"/><path class="cls-9" d="M77.67,32.6H68.24A2.22,2.22,0,0,1,66,30.38h0a2.22,2.22,0,0,1,2.22-2.21h9.43a2.21,2.21,0,0,1,2.22,2.21h0A2.21,2.21,0,0,1,77.67,32.6Z"/><path class="cls-9" d="M106.52,32.6H86.22A2.21,2.21,0,0,1,84,30.38h0a2.21,2.21,0,0,1,2.21-2.21h20.3a2.21,2.21,0,0,1,2.22,2.21h0A2.21,2.21,0,0,1,106.52,32.6Z"/><path class="cls-9" d="M123.76,32.6h-8.31a2.21,2.21,0,0,1-2.22-2.22h0a2.21,2.21,0,0,1,2.22-2.21h8.31A2.21,2.21,0,0,1,126,30.38h0A2.21,2.21,0,0,1,123.76,32.6Z"/></g></g></svg>