<svg xmlns="http://www.w3.org/2000/svg" viewBox="0 0 33 34.67"><defs><style>.cls-1{fill:#fff;}</style></defs><g id="レイヤー_2" data-name="レイヤー 2"><g id="レイヤー_1-2" data-name="レイヤー 1"><path class="cls-1" d="M32.5,31.58,24.36,23a14.06,14.06,0,0,0,3.24-9A13.92,13.92,0,0,0,13.8,0,13.92,13.92,0,0,0,0,14,13.91,13.91,0,0,0,13.8,28a13.52,13.52,0,0,0,7.91-2.53l8.19,8.65a1.8,1.8,0,0,0,1.3.56,1.78,1.78,0,0,0,1.25-.51,1.84,1.84,0,0,0,0-2.58ZM13.8,3.65a10.35,10.35,0,0,1,0,20.69,10.35,10.35,0,0,1,0-20.69Z"/></g></g></svg>